<svg width="16" height="16" viewBox="0 0 16 16" fill="none" xmlns="http://www.w3.org/2000/svg">
<g clip-path="url(#clip0_1042_3982)">
<path d="M8.00008 12.6667H9.33341V3.99999L13.5961 5.82666C13.7161 5.8781 13.8183 5.96364 13.8902 6.07268C13.962 6.18171 14.0002 6.30943 14.0001 6.43999V12.6667H15.3334V14H0.666748V12.6667H2.00008V3.76666C2.00006 3.63767 2.03747 3.51144 2.10776 3.40329C2.17805 3.29513 2.2782 3.20969 2.39608 3.15732L7.53141 0.874657C7.58222 0.852086 7.63786 0.84258 7.69328 0.847005C7.74869 0.851429 7.80212 0.869644 7.8487 0.89999C7.89528 0.930337 7.93353 0.971851 7.95997 1.02075C7.98641 1.06966 8.0002 1.1244 8.00008 1.17999V12.6667Z" fill="#3B3B3B"/>
</g>
<defs>
<clipPath id="clip0_1042_3982">
<rect width="16" height="16" fill="white"/>
</clipPath>
</defs>
</svg>
