<svg width="16" height="16" viewBox="0 0 16 16" fill="none" xmlns="http://www.w3.org/2000/svg">
<g clip-path="url(#clip0_1042_5126)">
<path d="M7.99992 14.6666C4.31792 14.6666 1.33325 11.6819 1.33325 7.99992C1.33325 4.31792 4.31792 1.33325 7.99992 1.33325C11.6819 1.33325 14.6666 4.31792 14.6666 7.99992C14.6666 11.6819 11.6819 14.6666 7.99992 14.6666ZM12.2366 10.6346V10.5646C12.2366 9.94992 12.2366 9.66925 11.8019 9.42059C11.6622 9.34138 11.5187 9.26907 11.3719 9.20392C11.1273 9.09259 10.9653 9.01992 10.7466 8.69992C10.7205 8.66192 10.6947 8.6237 10.6693 8.58525C10.4393 8.23525 10.2733 7.98325 9.64125 8.08325C8.39792 8.28059 8.30592 8.49925 8.25125 8.86859L8.24259 8.92925C8.16192 9.46925 8.14725 9.65059 8.37259 9.88725C9.21592 10.7719 9.72125 11.4099 9.87459 11.7833C9.94925 11.9653 10.1413 12.5166 10.0093 13.0619C10.8185 12.7396 11.5388 12.2282 12.1099 11.5706C12.1833 11.3213 12.2366 11.0106 12.2366 10.6346ZM7.99992 2.55525C6.45525 2.55525 5.05992 3.19925 4.06925 4.23259C4.18725 4.31459 4.28992 4.42992 4.36059 4.58859C4.49659 4.89325 4.49659 5.20725 4.49659 5.48525C4.49659 5.70392 4.49659 5.91192 4.56659 6.06192C4.66259 6.26725 5.07725 6.35525 5.44325 6.43125C5.57459 6.45925 5.70925 6.48725 5.83192 6.52125C6.16925 6.61459 6.43059 6.91792 6.63925 7.16125C6.72592 7.26192 6.85459 7.41059 6.91925 7.44792C6.95259 7.42392 7.05992 7.30725 7.11259 7.11592C7.15392 6.96925 7.14192 6.83992 7.08259 6.76925C6.70925 6.32925 6.72992 5.48259 6.84525 5.16992C7.02659 4.67725 7.59325 4.71392 8.00792 4.74059C8.16259 4.75059 8.30792 4.76059 8.41725 4.74659C8.83192 4.69459 8.95992 4.06325 9.04992 3.93992C9.24459 3.67325 9.84059 3.27125 10.2099 3.02325C9.51425 2.71391 8.76126 2.55446 7.99992 2.55525Z" fill="#3B3B3B"/>
</g>
<defs>
<clipPath id="clip0_1042_5126">
<rect width="16" height="16" fill="white"/>
</clipPath>
</defs>
</svg>
