<svg width="18" height="18" viewBox="0 0 18 18" fill="none" xmlns="http://www.w3.org/2000/svg">
<path d="M9.14991 17.3333C4.34614 17.3333 0.452148 13.6025 0.452148 8.99996C0.452148 4.39746 4.34614 0.666626 9.14991 0.666626C13.9537 0.666626 17.8477 4.39746 17.8477 8.99996C17.8477 13.6025 13.9537 17.3333 9.14991 17.3333ZM9.14991 15.6666C10.9953 15.6666 12.7652 14.9642 14.0701 13.714C15.375 12.4638 16.1081 10.7681 16.1081 8.99996C16.1081 7.23185 15.375 5.53616 14.0701 4.28591C12.7652 3.03567 10.9953 2.33329 9.14991 2.33329C7.30448 2.33329 5.53463 3.03567 4.22971 4.28591C2.9248 5.53616 2.1917 7.23185 2.1917 8.99996C2.1917 10.7681 2.9248 12.4638 4.22971 13.714C5.53463 14.9642 7.30448 15.6666 9.14991 15.6666ZM8.28014 4.83329H10.0197V6.49996H8.28014V4.83329ZM8.28014 8.16663H10.0197V13.1666H8.28014V8.16663Z" fill="#CC3300"/>
</svg>
