<svg width="20" height="20" viewBox="0 0 20 20" fill="none" xmlns="http://www.w3.org/2000/svg">
<g opacity="0.4" clip-path="url(#clip0_336_1384)">
<path d="M3.33342 16.6665V11.6665C3.33342 9.89839 4.0358 8.2027 5.28604 6.95246C6.53629 5.70222 8.23198 4.99984 10.0001 4.99984C11.7682 4.99984 13.4639 5.70222 14.7141 6.95246C15.9644 8.2027 16.6668 9.89839 16.6668 11.6665V16.6665H17.5001V18.3332H2.50009V16.6665H3.33342ZM5.00009 16.6665H15.0001V11.6665C15.0001 10.3404 14.4733 9.06865 13.5356 8.13097C12.5979 7.19329 11.3262 6.6665 10.0001 6.6665C8.67401 6.6665 7.40224 7.19329 6.46455 8.13097C5.52687 9.06865 5.00009 10.3404 5.00009 11.6665V16.6665ZM9.16675 1.6665H10.8334V4.1665H9.16675V1.6665ZM16.4818 4.0065L17.6601 5.18484L15.8934 6.95234L14.7143 5.774L16.4818 4.0065ZM2.34009 5.18484L3.51842 4.0065L5.28592 5.77317L4.10842 6.95317L2.34009 5.18484ZM5.83342 11.6665C5.83342 10.5614 6.27241 9.50163 7.05381 8.72023C7.83521 7.93882 8.89502 7.49984 10.0001 7.49984V9.1665C9.33705 9.1665 8.70116 9.4299 8.23232 9.89874C7.76348 10.3676 7.50009 11.0035 7.50009 11.6665H5.83342Z" fill="#1E1E1E"/>
</g>
<defs>
<clipPath id="clip0_336_1384">
<rect width="20" height="20" fill="white"/>
</clipPath>
</defs>
</svg>
