<svg width="17" height="18" viewBox="0 0 17 18" fill="none" xmlns="http://www.w3.org/2000/svg">
<path d="M1.91722 15.6666V10.6666C1.91722 8.89852 2.65038 7.20282 3.95539 5.95258C5.26041 4.70234 7.0304 3.99996 8.87597 3.99996C10.7215 3.99996 12.4915 4.70234 13.7965 5.95258C15.1016 7.20282 15.8347 8.89852 15.8347 10.6666V15.6666H16.7046V17.3333H1.04738V15.6666H1.91722ZM3.65691 15.6666H14.095V10.6666C14.095 9.34054 13.5452 8.06877 12.5664 7.13109C11.5876 6.19341 10.2602 5.66663 8.87597 5.66663C7.49179 5.66663 6.1643 6.19341 5.18554 7.13109C4.20677 8.06877 3.65691 9.34054 3.65691 10.6666V15.6666ZM8.00613 0.666626H9.74581V3.16663H8.00613V0.666626ZM15.6416 3.00663L16.8716 4.18496L15.0275 5.95246L13.7967 4.77413L15.6416 3.00663ZM0.880371 4.18496L2.11033 3.00663L3.95527 4.77329L2.72618 5.95329L0.880371 4.18496ZM4.52675 10.6666C4.52675 9.56156 4.98497 8.50175 5.80061 7.72035C6.61625 6.93895 7.72249 6.49996 8.87597 6.49996V8.16663C8.18388 8.16663 7.52014 8.43002 7.03075 8.89886C6.54137 9.3677 6.26644 10.0036 6.26644 10.6666H4.52675Z" fill="#CC3300"/>
</svg>
