<svg width="176" height="58" viewBox="0 0 176 58" fill="none" xmlns="http://www.w3.org/2000/svg">
<path d="M119.802 35.7271C120.284 35.2457 120.788 34.8031 121.316 34.3994C121.859 33.9801 122.426 33.6307 123.016 33.3512C123.621 33.0561 124.265 32.831 124.948 32.6757C125.631 32.5048 126.376 32.4194 127.184 32.4194C128.487 32.4194 129.644 32.6446 130.653 33.0949C131.662 33.5298 132.5 34.1509 133.168 34.9584C133.851 35.7504 134.363 36.7054 134.704 37.8235C135.061 38.9261 135.24 40.1451 135.24 41.4806V56.6913H129.489V41.4806C129.489 40.0209 129.155 38.895 128.487 38.1031C127.82 37.2956 126.803 36.8918 125.437 36.8918C124.444 36.8918 123.512 37.117 122.643 37.5673C121.774 38.0176 120.951 38.631 120.175 39.4075V56.6913H114.424V32.7921H117.94C118.685 32.7921 119.174 33.1415 119.406 33.8403L119.802 35.7271Z" fill="white"/>
<path d="M104.938 41.9931C104.938 41.2477 104.83 40.5489 104.612 39.8967C104.41 39.2289 104.1 38.6466 103.681 38.1496C103.262 37.6527 102.726 37.2645 102.074 36.985C101.438 36.6899 100.693 36.5424 99.8389 36.5424C98.1779 36.5424 96.8662 37.016 95.9038 37.9633C94.9569 38.9106 94.3515 40.2538 94.0876 41.9931H104.938ZM93.9712 45.4638C94.0643 46.6906 94.2816 47.7544 94.6231 48.655C94.9646 49.5402 95.4148 50.2778 95.9736 50.8679C96.5325 51.4425 97.1922 51.8773 97.9528 52.1724C98.729 52.4519 99.5827 52.5916 100.514 52.5916C101.445 52.5916 102.245 52.4829 102.912 52.2655C103.595 52.0481 104.185 51.8074 104.682 51.5434C105.194 51.2794 105.637 51.0387 106.009 50.8213C106.397 50.6039 106.77 50.4952 107.127 50.4952C107.608 50.4952 107.965 50.6738 108.198 51.031L109.851 53.1274C109.215 53.8728 108.501 54.5017 107.709 55.0142C106.917 55.5111 106.087 55.9149 105.218 56.2254C104.364 56.5205 103.487 56.7301 102.586 56.8544C101.702 56.9786 100.84 57.0407 100.002 57.0407C98.3409 57.0407 96.7963 56.769 95.3682 56.2254C93.9401 55.6664 92.6983 54.8511 91.6427 53.7796C90.5871 52.6926 89.7567 51.3571 89.1513 49.7731C88.5459 48.1736 88.2432 46.3257 88.2432 44.2293C88.2432 42.5987 88.507 41.0691 89.0348 39.6404C89.5626 38.1962 90.3155 36.9461 91.2934 35.8902C92.2869 34.8187 93.4899 33.9723 94.9025 33.3512C96.3307 32.73 97.9373 32.4194 99.7224 32.4194C101.228 32.4194 102.617 32.6601 103.89 33.1415C105.163 33.6229 106.258 34.3295 107.173 35.2612C108.089 36.1775 108.803 37.3111 109.316 38.6621C109.843 39.9976 110.107 41.5272 110.107 43.2509C110.107 44.1206 110.014 44.7107 109.828 45.0212C109.642 45.3163 109.285 45.4638 108.757 45.4638H93.9712Z" fill="white"/>
<path d="M78.2822 36.938C79.0273 35.5093 79.9121 34.3912 80.9367 33.5837C81.9612 32.7606 83.172 32.3491 84.5691 32.3491C85.6712 32.3491 86.556 32.5898 87.2235 33.0712L86.8509 37.3805C86.7733 37.6601 86.6569 37.8619 86.5017 37.9862C86.362 38.0949 86.1679 38.1492 85.9196 38.1492C85.6867 38.1492 85.3374 38.1104 84.8718 38.0327C84.4216 37.9551 83.9792 37.9163 83.5445 37.9163C82.9081 37.9163 82.3415 38.0095 81.8448 38.1958C81.348 38.3822 80.8979 38.6539 80.4943 39.0111C80.1062 39.3527 79.7569 39.772 79.4465 40.2689C79.1515 40.7659 78.8721 41.3327 78.6082 41.9694V56.6909H72.8569V32.7917H76.2332C76.8231 32.7917 77.2344 32.9004 77.4673 33.1178C77.7001 33.3197 77.8553 33.6924 77.933 34.2359L78.2822 36.938Z" fill="white"/>
<path d="M60.9099 36.938C61.655 35.5093 62.5398 34.3912 63.5644 33.5837C64.5889 32.7606 65.7997 32.3491 67.1967 32.3491C68.2989 32.3491 69.1837 32.5898 69.8512 33.0712L69.4786 37.3805C69.401 37.6601 69.2846 37.8619 69.1294 37.9862C68.9897 38.0949 68.7956 38.1492 68.5472 38.1492C68.3144 38.1492 67.9651 38.1104 67.4994 38.0327C67.0493 37.9551 66.6069 37.9163 66.1722 37.9163C65.5358 37.9163 64.9692 38.0095 64.4724 38.1958C63.9757 38.3822 63.5255 38.6539 63.1219 39.0111C62.7339 39.3527 62.3846 39.772 62.0741 40.2689C61.7792 40.7659 61.4998 41.3327 61.2359 41.9694V56.6909H55.4846V32.7917H58.8609C59.4507 32.7917 59.8621 32.9004 60.095 33.1178C60.3278 33.3197 60.483 33.6924 60.5606 34.2359L60.9099 36.938Z" fill="white"/>
<path d="M44.4565 46.4883C42.7955 46.566 41.3984 46.7135 40.2652 46.9309C39.1321 47.1328 38.224 47.3968 37.541 47.7229C36.8579 48.049 36.369 48.4294 36.074 48.8643C35.7791 49.2991 35.6316 49.7727 35.6316 50.2852C35.6316 51.2945 35.9266 52.0166 36.5164 52.4515C37.1218 52.8863 37.9057 53.1037 38.8682 53.1037C40.0479 53.1037 41.0647 52.894 41.9184 52.4748C42.7877 52.0399 43.6337 51.3877 44.4565 50.5181V46.4883ZM31.2774 36.1227C34.025 33.607 37.3314 32.3491 41.1966 32.3491C42.5937 32.3491 43.8433 32.5821 44.9454 33.0479C46.0476 33.4983 46.979 34.135 47.7396 34.958C48.5002 35.7655 49.0746 36.7361 49.4626 37.8697C49.8662 39.0033 50.068 40.2456 50.068 41.5967V56.6909H47.4602C46.9169 56.6909 46.4977 56.6132 46.2028 56.458C45.9079 56.2871 45.675 55.9533 45.5043 55.4563L44.992 53.7326C44.3866 54.2761 43.7967 54.7575 43.2224 55.1768C42.648 55.5806 42.0504 55.9222 41.4295 56.2017C40.8085 56.4812 40.1411 56.6909 39.427 56.8307C38.7285 56.9859 37.9523 57.0636 37.0985 57.0636C36.0896 57.0636 35.1582 56.9316 34.3044 56.6676C33.4506 56.3881 32.7133 55.9766 32.0924 55.433C31.4715 54.8895 30.9902 54.214 30.6487 53.4065C30.3072 52.599 30.1365 51.6595 30.1365 50.588C30.1365 49.9823 30.2374 49.3845 30.4392 48.7944C30.641 48.1887 30.967 47.6142 31.4171 47.0706C31.8828 46.5271 32.4805 46.0147 33.21 45.5333C33.9396 45.0519 34.8322 44.6326 35.8878 44.2754C36.9588 43.9183 38.2007 43.631 39.6133 43.4136C41.0259 43.1806 42.6403 43.0409 44.4565 42.9943V41.5967C44.4565 39.9972 44.115 38.817 43.4319 38.056C42.7489 37.2796 41.7632 36.8914 40.4748 36.8914C39.5434 36.8914 38.7673 37.0001 38.1464 37.2175C37.541 37.4349 37.0054 37.6833 36.5397 37.9629C36.074 38.2269 35.6471 38.4676 35.2591 38.685C34.8865 38.9024 34.4674 39.0111 34.0017 39.0111C33.5981 39.0111 33.2566 38.9101 32.9772 38.7083C32.6978 38.4909 32.4727 38.2424 32.3019 37.9629L31.2774 36.1227Z" fill="white"/>
<path d="M25.0774 48.7473C25.4189 48.7473 25.7216 48.8793 25.9855 49.1433L28.4537 51.8221C27.0877 53.5147 25.4034 54.8114 23.401 55.7121C21.414 56.6128 19.0235 57.0631 16.2293 57.0631C13.7301 57.0631 11.4793 56.6361 9.47681 55.782C7.48986 54.9279 5.79009 53.7399 4.37749 52.2181C2.9649 50.6962 1.87829 48.8793 1.11766 46.7674C0.372552 44.6554 0 42.3494 0 39.8492C0 37.318 0.403599 35.0041 1.2108 32.9077C2.01799 30.7958 3.15117 28.9789 4.61034 27.457C6.08502 25.9352 7.83913 24.755 9.87264 23.9164C11.9062 23.0623 14.157 22.6353 16.6252 22.6353C19.0778 22.6353 21.251 23.039 23.1448 23.8465C25.0542 24.654 26.6763 25.71 28.0113 27.0144L25.9157 29.9261C25.7915 30.1125 25.6285 30.2755 25.4267 30.4153C25.2404 30.5551 24.9765 30.6249 24.635 30.6249C24.4022 30.6249 24.1616 30.5628 23.9132 30.4386C23.6648 30.2988 23.3932 30.1358 23.0983 29.9494C22.8033 29.7476 22.4618 29.5301 22.0737 29.2972C21.6857 29.0643 21.2355 28.8546 20.7232 28.6683C20.211 28.4664 19.6133 28.3033 18.9303 28.1791C18.2628 28.0394 17.4867 27.9695 16.6019 27.9695C15.0961 27.9695 13.7146 28.2412 12.4572 28.7847C11.2154 29.3127 10.1443 30.0892 9.24396 31.1141C8.34363 32.1235 7.64509 33.3658 7.14835 34.8411C6.65162 36.3008 6.40325 37.9702 6.40325 39.8492C6.40325 41.7437 6.66714 43.4286 7.19492 44.9039C7.73823 46.3791 8.46781 47.6215 9.38367 48.6309C10.2995 49.6402 11.3784 50.4167 12.6202 50.9602C13.8621 51.4882 15.197 51.7522 16.6252 51.7522C17.4789 51.7522 18.2473 51.7056 18.9303 51.6124C19.6289 51.5193 20.2653 51.3717 20.8397 51.1699C21.4295 50.968 21.9806 50.7117 22.4929 50.4012C23.0206 50.0751 23.5407 49.6791 24.0529 49.2132C24.2082 49.0734 24.3711 48.9647 24.5419 48.8871C24.7127 48.7939 24.8912 48.7473 25.0774 48.7473Z" fill="white"/>
<path d="M149.938 30.5604L148.639 30.5541C146.611 30.5387 144.657 31.3322 143.207 32.76C141.757 34.1879 140.93 36.1332 140.908 38.1682L140.849 49.6188C140.833 51.6538 141.624 53.6093 143.047 55.0553C144.47 56.5013 146.409 57.3194 148.437 57.3296L166.938 57.4202C168.967 57.4298 170.919 56.6308 172.365 55.1989C173.811 53.7669 174.632 51.8193 174.649 49.7843L174.739 38.3664C174.755 36.3314 173.965 34.3759 172.542 32.9299C171.119 31.4839 169.18 30.6658 167.151 30.6556L166.177 30.6508L166.323 25.9843L162.631 22.2325L165.902 18.9924L161.942 14.9679L163.719 13.2074L163.769 6.91238L157.33 0.368517L150.186 7.44284L149.938 30.5604ZM151.938 47.0139L163.742 47.0608C164.147 47.064 164.533 47.2275 164.816 47.5156C165.1 47.8038 165.258 48.1931 165.256 48.5986L165.249 49.4669C165.244 49.8724 165.08 50.2602 164.792 50.5455C164.504 50.8308 164.115 50.9905 163.711 50.9898L151.907 50.9645C151.503 50.9614 151.117 50.7978 150.833 50.5097C150.55 50.2216 150.392 49.8322 150.394 49.4267L150.401 48.5584C150.4 48.3558 150.439 48.1549 150.516 47.9674C150.593 47.7799 150.707 47.6094 150.85 47.4658C150.993 47.3222 151.163 47.2083 151.349 47.1308C151.536 47.0532 151.736 47.0135 151.938 47.0139ZM157.295 4.7099L160.665 8.13453L160.646 11.9659L157.592 14.99L161.542 19.0036L158.27 22.2437L163.218 27.2716L163.094 30.6683L152.957 30.5426L153.238 8.72769L157.295 4.7099Z" fill="white"/>
</svg>
