<svg width="20" height="20" viewBox="0 0 20 20" fill="none" xmlns="http://www.w3.org/2000/svg">
<g clip-path="url(#clip0_336_2042)">
<path d="M16.6667 14.1665H18.3334V15.8332H1.66675V14.1665H3.33341V8.33317C3.33341 6.56506 4.03579 4.86937 5.28604 3.61913C6.53628 2.36888 8.23197 1.6665 10.0001 1.6665C11.7682 1.6665 13.4639 2.36888 14.7141 3.61913C15.9644 4.86937 16.6667 6.56506 16.6667 8.33317V14.1665ZM15.0001 14.1665V8.33317C15.0001 7.00709 14.4733 5.73532 13.5356 4.79764C12.5979 3.85995 11.3262 3.33317 10.0001 3.33317C8.674 3.33317 7.40223 3.85995 6.46455 4.79764C5.52687 5.73532 5.00008 7.00709 5.00008 8.33317V14.1665H15.0001ZM7.50008 17.4998H12.5001V19.1665H7.50008V17.4998Z" fill="#3B3B3B"/>
</g>
<defs>
<clipPath id="clip0_336_2042">
<rect width="20" height="20" fill="white"/>
</clipPath>
</defs>
</svg>
