<svg width="11" height="10" viewBox="0 0 11 10" fill="none" xmlns="http://www.w3.org/2000/svg">
<path d="M8.5 7.5V8.5C8.5 8.63261 8.55268 8.75979 8.64645 8.85355C8.74021 8.94732 8.86739 9 9 9C9.13261 9 9.25979 8.94732 9.35355 8.85355C9.44732 8.75979 9.5 8.63261 9.5 8.5V1H2.5V6.5H1.5V0.5C1.5 0.367392 1.55268 0.240215 1.64645 0.146447C1.74021 0.0526784 1.86739 0 2 0H10C10.1326 0 10.2598 0.0526784 10.3536 0.146447C10.4473 0.240215 10.5 0.367392 10.5 0.5V8.5C10.5 8.89782 10.342 9.27936 10.0607 9.56066C9.77936 9.84196 9.39782 10 9 10H2C1.60218 10 1.22064 9.84196 0.93934 9.56066C0.658035 9.27936 0.5 8.89782 0.5 8.5V7.5H8.5Z" fill="#585757"/>
</svg>
