<svg width="14" height="14" viewBox="0 0 14 14" fill="none" xmlns="http://www.w3.org/2000/svg">
<path d="M10.3333 2.00008H13C13.1768 2.00008 13.3464 2.07032 13.4714 2.19534C13.5964 2.32037 13.6667 2.48994 13.6667 2.66675V13.3334C13.6667 13.5102 13.5964 13.6798 13.4714 13.8048C13.3464 13.9298 13.1768 14.0001 13 14.0001H0.999995C0.823184 14.0001 0.653615 13.9298 0.52859 13.8048C0.403566 13.6798 0.333328 13.5102 0.333328 13.3334V2.66675C0.333328 2.48994 0.403566 2.32037 0.52859 2.19534C0.653615 2.07032 0.823184 2.00008 0.999995 2.00008H3.66666V0.666748H5V2.00008H9V0.666748H10.3333V2.00008ZM1.66666 6.00008V12.6667H12.3333V6.00008H1.66666ZM2.99999 7.33341H4.33333V8.66675H2.99999V7.33341ZM2.99999 10.0001H4.33333V11.3334H2.99999V10.0001ZM5.66666 7.33341H11V8.66675H5.66666V7.33341ZM5.66666 10.0001H9V11.3334H5.66666V10.0001Z" fill="#3B3B3B"/>
</svg>
