<svg width="20" height="20" viewBox="0 0 20 20" fill="none" xmlns="http://www.w3.org/2000/svg">
<g opacity="0.4" clip-path="url(#clip0_336_930)">
<path d="M15.8334 16.6666H4.16675V17.4999C4.16675 17.7209 4.07895 17.9329 3.92267 18.0892C3.76639 18.2455 3.55443 18.3333 3.33341 18.3333H2.50008C2.27907 18.3333 2.06711 18.2455 1.91083 18.0892C1.75455 17.9329 1.66675 17.7209 1.66675 17.4999V9.16659L3.73341 4.34325C3.86202 4.04325 4.07588 3.78762 4.34846 3.60807C4.62104 3.42852 4.94035 3.33296 5.26675 3.33325H14.7334C15.0595 3.33329 15.3785 3.429 15.6507 3.60853C15.923 3.78806 16.1366 4.04351 16.2651 4.34325L18.3334 9.16659V17.4999C18.3334 17.7209 18.2456 17.9329 18.0893 18.0892C17.9331 18.2455 17.7211 18.3333 17.5001 18.3333H16.6667C16.4457 18.3333 16.2338 18.2455 16.0775 18.0892C15.9212 17.9329 15.8334 17.7209 15.8334 17.4999V16.6666ZM16.6667 10.8333H3.33341V14.9999H16.6667V10.8333ZM3.48008 9.16659H16.5201L14.7342 4.99992H5.26675L3.48091 9.16659H3.48008ZM5.41675 14.1666C5.08523 14.1666 4.76729 14.0349 4.53286 13.8005C4.29844 13.566 4.16675 13.2481 4.16675 12.9166C4.16675 12.5851 4.29844 12.2671 4.53286 12.0327C4.76729 11.7983 5.08523 11.6666 5.41675 11.6666C5.74827 11.6666 6.06621 11.7983 6.30063 12.0327C6.53505 12.2671 6.66675 12.5851 6.66675 12.9166C6.66675 13.2481 6.53505 13.566 6.30063 13.8005C6.06621 14.0349 5.74827 14.1666 5.41675 14.1666ZM14.5834 14.1666C14.2519 14.1666 13.934 14.0349 13.6995 13.8005C13.4651 13.566 13.3334 13.2481 13.3334 12.9166C13.3334 12.5851 13.4651 12.2671 13.6995 12.0327C13.934 11.7983 14.2519 11.6666 14.5834 11.6666C14.9149 11.6666 15.2329 11.7983 15.4673 12.0327C15.7017 12.2671 15.8334 12.5851 15.8334 12.9166C15.8334 13.2481 15.7017 13.566 15.4673 13.8005C15.2329 14.0349 14.9149 14.1666 14.5834 14.1666Z" fill="#09121F"/>
</g>
<defs>
<clipPath id="clip0_336_930">
<rect width="20" height="20" fill="white"/>
</clipPath>
</defs>
</svg>
