<svg width="20" height="21" viewBox="0 0 20 21" fill="none" xmlns="http://www.w3.org/2000/svg">
<path d="M17 19H3V20C3 20.2652 2.89464 20.5196 2.70711 20.7071C2.51957 20.8946 2.26522 21 2 21H1C0.734784 21 0.48043 20.8946 0.292893 20.7071C0.105357 20.5196 0 20.2652 0 20V9.99999L2.417 5.97099C2.59469 5.67484 2.84605 5.42975 3.1466 5.25958C3.44714 5.08942 3.78663 4.99999 4.132 4.99999H15.868C16.2134 4.99999 16.5529 5.08942 16.8534 5.25958C17.1539 5.42975 17.4053 5.67484 17.583 5.97099L20 9.99999V20C20 20.2652 19.8946 20.5196 19.7071 20.7071C19.5196 20.8946 19.2652 21 19 21H18C17.7348 21 17.4804 20.8946 17.2929 20.7071C17.1054 20.5196 17 20.2652 17 20V19ZM18 12H2V17H18V12ZM2.332 9.99999H17.668L15.868 6.99999H4.132L2.332 9.99999ZM3.44 1.43999L4.5 0.377991L5.56 1.43799C5.76982 1.64775 5.91273 1.91503 5.97064 2.20601C6.02856 2.49699 5.99888 2.79862 5.88536 3.07273C5.77184 3.34685 5.57959 3.58114 5.3329 3.74598C5.08622 3.91083 4.79619 3.99881 4.4995 3.99881C4.20281 3.99881 3.91278 3.91083 3.6661 3.74598C3.41941 3.58114 3.22716 3.34685 3.11364 3.07273C3.00012 2.79862 2.97044 2.49699 3.02836 2.20601C3.08627 1.91503 3.22918 1.64775 3.439 1.43799L3.44 1.43999ZM8.94 1.43999L10 0.377991L11.06 1.43799C11.2698 1.64775 11.4127 1.91503 11.4706 2.20601C11.5286 2.49699 11.4989 2.79862 11.3854 3.07273C11.2718 3.34685 11.0796 3.58114 10.8329 3.74598C10.5862 3.91083 10.2962 3.99881 9.9995 3.99881C9.70281 3.99881 9.41278 3.91083 9.1661 3.74598C8.91941 3.58114 8.72715 3.34685 8.61364 3.07273C8.50012 2.79862 8.47044 2.49699 8.52836 2.20601C8.58627 1.91503 8.72918 1.64775 8.939 1.43799L8.94 1.43999ZM14.44 1.43999L15.5 0.377991L16.56 1.43799C16.7698 1.64775 16.9127 1.91503 16.9706 2.20601C17.0286 2.49699 16.9989 2.79862 16.8854 3.07273C16.7718 3.34685 16.5796 3.58114 16.3329 3.74598C16.0862 3.91083 15.7962 3.99881 15.4995 3.99881C15.2028 3.99881 14.9128 3.91083 14.6661 3.74598C14.4194 3.58114 14.2272 3.34685 14.1136 3.07273C14.0001 2.79862 13.9704 2.49699 14.0284 2.20601C14.0863 1.91503 14.2292 1.64775 14.439 1.43799L14.44 1.43999ZM4.5 16C4.10218 16 3.72064 15.842 3.43934 15.5606C3.15804 15.2793 3 14.8978 3 14.5C3 14.1022 3.15804 13.7206 3.43934 13.4393C3.72064 13.158 4.10218 13 4.5 13C4.89782 13 5.27936 13.158 5.56066 13.4393C5.84196 13.7206 6 14.1022 6 14.5C6 14.8978 5.84196 15.2793 5.56066 15.5606C5.27936 15.842 4.89782 16 4.5 16ZM15.5 16C15.1022 16 14.7206 15.842 14.4393 15.5606C14.158 15.2793 14 14.8978 14 14.5C14 14.1022 14.158 13.7206 14.4393 13.4393C14.7206 13.158 15.1022 13 15.5 13C15.8978 13 16.2794 13.158 16.5607 13.4393C16.842 13.7206 17 14.1022 17 14.5C17 14.8978 16.842 15.2793 16.5607 15.5606C16.2794 15.842 15.8978 16 15.5 16Z" fill="#1E1E1E"/>
</svg>
