<svg width="14" height="14" viewBox="0 0 14 14" fill="none" xmlns="http://www.w3.org/2000/svg">
<path d="M7 13.6666C3.318 13.6666 0.333328 10.6819 0.333328 6.99992C0.333328 3.31792 3.318 0.333252 7 0.333252C10.682 0.333252 13.6667 3.31792 13.6667 6.99992C13.6667 10.6819 10.682 13.6666 7 13.6666ZM7 12.3333C8.41448 12.3333 9.77104 11.7713 10.7712 10.7712C11.7714 9.77096 12.3333 8.41441 12.3333 6.99992C12.3333 5.58543 11.7714 4.22888 10.7712 3.22868C9.77104 2.22849 8.41448 1.66659 7 1.66659C5.58551 1.66659 4.22895 2.22849 3.22876 3.22868C2.22856 4.22888 1.66666 5.58543 1.66666 6.99992C1.66666 8.41441 2.22856 9.77096 3.22876 10.7712C4.22895 11.7713 5.58551 12.3333 7 12.3333ZM4.66666 8.33325H8.33333C8.42173 8.33325 8.50652 8.29813 8.56903 8.23562C8.63154 8.17311 8.66666 8.08832 8.66666 7.99992C8.66666 7.91151 8.63154 7.82673 8.56903 7.76422C8.50652 7.7017 8.42173 7.66659 8.33333 7.66659H5.66666C5.22463 7.66659 4.80071 7.49099 4.48815 7.17843C4.17559 6.86587 3.99999 6.44195 3.99999 5.99992C3.99999 5.55789 4.17559 5.13397 4.48815 4.82141C4.80071 4.50885 5.22463 4.33325 5.66666 4.33325H6.33333V2.99992H7.66666V4.33325H9.33333V5.66659H5.66666C5.57826 5.66659 5.49347 5.7017 5.43096 5.76422C5.36845 5.82673 5.33333 5.91151 5.33333 5.99992C5.33333 6.08832 5.36845 6.17311 5.43096 6.23562C5.49347 6.29813 5.57826 6.33325 5.66666 6.33325H8.33333C8.77536 6.33325 9.19928 6.50885 9.51184 6.82141C9.8244 7.13397 10 7.55789 10 7.99992C10 8.44195 9.8244 8.86587 9.51184 9.17843C9.19928 9.49099 8.77536 9.66659 8.33333 9.66659H7.66666V10.9999H6.33333V9.66659H4.66666V8.33325Z" fill="#3B3B3B"/>
</svg>
