<svg width="10" height="10" viewBox="0 0 10 10" fill="none" xmlns="http://www.w3.org/2000/svg">
<path d="M1 0.5H9C9.13261 0.5 9.25979 0.552678 9.35355 0.646447C9.44732 0.740215 9.5 0.867392 9.5 1V9C9.5 9.13261 9.44732 9.25979 9.35355 9.35355C9.25979 9.44732 9.13261 9.5 9 9.5H1C0.867392 9.5 0.740215 9.44732 0.646447 9.35355C0.552678 9.25979 0.5 9.13261 0.5 9V1C0.5 0.867392 0.552678 0.740215 0.646447 0.646447C0.740215 0.552678 0.867392 0.5 1 0.5ZM1.5 1.5V8.5H8.5V1.5H1.5ZM4.5015 7L2.38 4.8785L3.087 4.1715L4.5015 5.586L7.3295 2.7575L8.037 3.4645L4.5015 7Z" fill="#05522B"/>
</svg>
