<svg width="20" height="20" viewBox="0 0 20 20" fill="none" xmlns="http://www.w3.org/2000/svg">
<g opacity="0.4" clip-path="url(#clip0_336_942)">
<path d="M2.78326 14.1668C2.43099 13.5576 2.15715 12.9063 1.96826 12.2284C2.37935 12.0193 2.72459 11.7006 2.96579 11.3075C3.20698 10.9144 3.33473 10.4622 3.33491 10.001C3.33508 9.53982 3.20767 9.08755 2.96676 8.69426C2.72586 8.30097 2.38086 7.98199 1.96993 7.7726C2.34663 6.4105 3.06387 5.16672 4.05409 4.15843C4.44084 4.40987 4.88961 4.5494 5.35074 4.56158C5.81188 4.57376 6.26739 4.45812 6.66687 4.22746C7.06635 3.99679 7.39422 3.66009 7.6142 3.25463C7.83418 2.84917 7.93768 2.39074 7.91326 1.9301C9.28169 1.57645 10.7176 1.57702 12.0858 1.93176C12.0616 2.3924 12.1653 2.85075 12.3854 3.2561C12.6056 3.66145 12.9336 3.99799 13.3331 4.22848C13.7327 4.45897 14.1882 4.57442 14.6493 4.56206C15.1104 4.54969 15.5591 4.41 15.9458 4.15843C16.4283 4.6501 16.8566 5.20926 17.2166 5.83343C17.5774 6.4576 17.8474 7.10843 18.0316 7.77176C17.6205 7.98085 17.2753 8.29957 17.0341 8.69268C16.7929 9.08579 16.6651 9.53796 16.665 9.99917C16.6648 10.4604 16.7922 10.9126 17.0331 11.3059C17.274 11.6992 17.619 12.0182 18.0299 12.2276C17.6532 13.5897 16.936 14.8335 15.9458 15.8418C15.559 15.5903 15.1102 15.4508 14.6491 15.4386C14.188 15.4264 13.7325 15.5421 13.333 15.7727C12.9335 16.0034 12.6056 16.3401 12.3857 16.7456C12.1657 17.151 12.0622 17.6094 12.0866 18.0701C10.7182 18.4237 9.28224 18.4232 7.91409 18.0684C7.9383 17.6078 7.83459 17.1494 7.61445 16.7441C7.3943 16.3387 7.0663 16.0022 6.66674 15.7717C6.26718 15.5412 5.81164 15.4258 5.35053 15.4381C4.88943 15.4505 4.44073 15.5902 4.05409 15.8418C3.56159 15.3392 3.13459 14.7764 2.78326 14.1668ZM7.49993 14.3301C8.38795 14.8423 9.05563 15.6643 9.37493 16.6384C9.79076 16.6776 10.2083 16.6784 10.6241 16.6393C10.9436 15.665 11.6116 14.843 12.4999 14.3309C13.3876 13.8173 14.4337 13.6497 15.4374 13.8601C15.6791 13.5201 15.8874 13.1576 16.0608 12.7784C15.377 12.0146 14.9992 11.0253 14.9999 10.0001C14.9999 8.9501 15.3916 7.96926 16.0608 7.22176C15.8862 6.84272 15.677 6.48062 15.4358 6.1401C14.4327 6.35035 13.3873 6.18299 12.4999 5.6701C11.6119 5.15791 10.9442 4.33592 10.6249 3.36176C10.2091 3.3226 9.79159 3.32176 9.37576 3.36093C9.05626 4.33522 8.38826 5.15723 7.49993 5.66926C6.61225 6.18286 5.56616 6.35053 4.56243 6.1401C4.32123 6.48033 4.11254 6.84248 3.9391 7.22176C4.6229 7.98556 5.00066 8.97492 4.99993 10.0001C4.99993 11.0501 4.60826 12.0309 3.9391 12.7784C4.11365 13.1575 4.32288 13.5196 4.5641 13.8601C5.56719 13.6498 6.6126 13.8172 7.49993 14.3301ZM9.99993 12.5001C9.33689 12.5001 8.701 12.2367 8.23216 11.7679C7.76332 11.299 7.49993 10.6631 7.49993 10.0001C7.49993 9.33705 7.76332 8.70117 8.23216 8.23233C8.701 7.76349 9.33689 7.5001 9.99993 7.5001C10.663 7.5001 11.2989 7.76349 11.7677 8.23233C12.2365 8.70117 12.4999 9.33705 12.4999 10.0001C12.4999 10.6631 12.2365 11.299 11.7677 11.7679C11.2989 12.2367 10.663 12.5001 9.99993 12.5001ZM9.99993 10.8334C10.2209 10.8334 10.4329 10.7456 10.5892 10.5894C10.7455 10.4331 10.8333 10.2211 10.8333 10.0001C10.8333 9.77908 10.7455 9.56712 10.5892 9.41084C10.4329 9.25456 10.2209 9.16676 9.99993 9.16676C9.77891 9.16676 9.56695 9.25456 9.41067 9.41084C9.25439 9.56712 9.1666 9.77908 9.1666 10.0001C9.1666 10.2211 9.25439 10.4331 9.41067 10.5894C9.56695 10.7456 9.77891 10.8334 9.99993 10.8334Z" fill="#09121F"/>
</g>
<defs>
<clipPath id="clip0_336_942">
<rect width="20" height="20" fill="white"/>
</clipPath>
</defs>
</svg>
