<svg width="10" height="11" viewBox="0 0 10 11" fill="none" xmlns="http://www.w3.org/2000/svg">
<path d="M7.809 2.984L8.5355 2.2575L9.2425 2.9645L8.516 3.691C9.23388 4.58958 9.58046 5.72894 9.48454 6.87507C9.38862 8.02119 8.8575 9.0871 8.00024 9.85386C7.14299 10.6206 6.02468 11.03 4.87499 10.998C3.7253 10.966 2.6315 10.495 1.81823 9.68176C1.00497 8.8685 0.533963 7.7747 0.501958 6.62501C0.469953 5.47532 0.879375 4.35701 1.64614 3.49976C2.4129 2.6425 3.4788 2.11138 4.62493 2.01546C5.77106 1.91954 6.91042 2.26612 7.809 2.984ZM5 10C5.45963 10 5.91475 9.90947 6.33939 9.73358C6.76403 9.55769 7.14987 9.29988 7.47487 8.97487C7.79988 8.64987 8.05769 8.26403 8.23358 7.83939C8.40947 7.41475 8.5 6.95963 8.5 6.5C8.5 6.04037 8.40947 5.58525 8.23358 5.16061C8.05769 4.73597 7.79988 4.35013 7.47487 4.02513C7.14987 3.70012 6.76403 3.44231 6.33939 3.26642C5.91475 3.09053 5.45963 3 5 3C4.07174 3 3.1815 3.36875 2.52513 4.02513C1.86875 4.6815 1.5 5.57174 1.5 6.5C1.5 7.42826 1.86875 8.3185 2.52513 8.97487C3.1815 9.63125 4.07174 10 5 10ZM4.5 4H5.5V7H4.5V4ZM3 0.5H7V1.5H3V0.5Z" fill="#3B3B3B"/>
</svg>
