<svg width="10" height="10" viewBox="0 0 10 10" fill="none" xmlns="http://www.w3.org/2000/svg">
<path d="M2.5 2.5V0.5C2.5 0.367392 2.55268 0.240215 2.64645 0.146447C2.74022 0.0526784 2.86739 0 3 0H9.5C9.63261 0 9.75979 0.0526784 9.85355 0.146447C9.94732 0.240215 10 0.367392 10 0.5V7C10 7.13261 9.94732 7.25979 9.85355 7.35355C9.75979 7.44732 9.63261 7.5 9.5 7.5H7.5V9.4965C7.5 9.7745 7.2755 10 6.9965 10H0.5035C0.437361 10.0001 0.371858 9.98709 0.310741 9.96181C0.249624 9.93653 0.194093 9.89944 0.147325 9.85267C0.100558 9.80591 0.0634728 9.75038 0.0381929 9.68926C0.0129129 9.62814 -6.55285e-05 9.56264 2.4878e-07 9.4965L0.00150026 3.0035C0.00150026 2.7255 0.226 2.5 0.505 2.5H2.5ZM3.5 2.5H6.9965C7.2745 2.5 7.5 2.7245 7.5 3.0035V6.5H9V1H3.5V2.5ZM6.5 3.5H1.0015L1 9H6.5V3.5ZM3.2515 8L1.4835 6.232L2.1905 5.525L3.2515 6.586L5.3725 4.4645L6.0795 5.1715L3.2515 8Z" fill="#3B3B3B"/>
</svg>
