<svg width="20" height="21" viewBox="0 0 20 21" fill="none" xmlns="http://www.w3.org/2000/svg">
<g clip-path="url(#clip0_159_400)">
<path d="M0.984131 10.2682C1.76746 6.00152 5.50663 2.76819 9.99996 2.76819C14.4933 2.76819 18.2316 6.00152 19.0158 10.2682C18.2325 14.5349 14.4933 17.7682 9.99996 17.7682C5.50663 17.7682 1.7683 14.5349 0.984131 10.2682ZM9.99996 14.4349C11.105 14.4349 12.1648 13.9959 12.9462 13.2145C13.7276 12.4331 14.1666 11.3733 14.1666 10.2682C14.1666 9.16312 13.7276 8.10331 12.9462 7.32191C12.1648 6.54051 11.105 6.10152 9.99996 6.10152C8.8949 6.10152 7.83509 6.54051 7.05369 7.32191C6.27228 8.10331 5.8333 9.16312 5.8333 10.2682C5.8333 11.3733 6.27228 12.4331 7.05369 13.2145C7.83509 13.9959 8.8949 14.4349 9.99996 14.4349ZM9.99996 12.7682C9.33692 12.7682 8.70104 12.5048 8.2322 12.036C7.76336 11.5671 7.49996 10.9312 7.49996 10.2682C7.49996 9.60515 7.76336 8.96926 8.2322 8.50042C8.70104 8.03158 9.33692 7.76819 9.99996 7.76819C10.663 7.76819 11.2989 8.03158 11.7677 8.50042C12.2366 8.96926 12.5 9.60515 12.5 10.2682C12.5 10.9312 12.2366 11.5671 11.7677 12.036C11.2989 12.5048 10.663 12.7682 9.99996 12.7682Z" fill="#5E5E5E"/>
</g>
<defs>
<clipPath id="clip0_159_400">
<rect width="20" height="20" fill="white" transform="translate(0 0.268188)"/>
</clipPath>
</defs>
</svg>
