<svg width="122" height="85" viewBox="0 0 122 85" fill="none" xmlns="http://www.w3.org/2000/svg">
<mask id="mask0_730_10483" style="mask-type:luminance" maskUnits="userSpaceOnUse" x="0" y="-40" width="177" height="177">
<path d="M147.055 -39.9997L0 -10.4219L29.5778 136.633L176.633 107.055L147.055 -39.9997Z" fill="white"/>
</mask>
<g mask="url(#mask0_730_10483)">
<path d="M109.865 51.8685C124.6 54.298 142.841 49.646 153.271 40.7984C156.998 37.6378 155.786 31.6109 151.127 30.1368C138.087 26.0102 119.467 28.7726 106.816 36.7097L97.3286 42.6622C97.223 42.4681 97.1056 42.284 96.9894 42.0981L106.065 35.5911C118.203 26.8887 127.811 10.7016 128.931 -2.93004C129.331 -7.80024 124.212 -11.2049 119.875 -8.95309C107.736 -2.65019 96.523 12.4697 93.1895 27.0279L90.7829 37.5419C90.5626 37.4848 90.3424 37.4284 90.118 37.3856L91.868 26.7682C94.2968 12.0325 89.6449 -6.20828 80.798 -16.6389C77.6374 -20.3652 71.6105 -19.1527 70.1364 -14.4942C66.0099 -1.45408 68.7724 17.1664 76.7094 29.8175L82.4284 38.9327C82.2378 39.0589 82.0566 39.196 81.8757 39.3338L75.5908 30.5679C66.8885 18.4306 50.7012 8.82187 37.0697 7.70228C32.1995 7.30234 28.7948 12.4214 31.0466 16.7582C37.3495 28.8965 52.4694 40.1104 67.0275 43.4433L77.9131 45.9354C77.878 46.1517 77.8406 46.367 77.8189 46.5866L66.7678 44.7651C52.0322 42.3361 33.7914 46.9881 23.3608 55.8352C19.6345 58.9957 20.847 65.0225 25.5055 66.4965C38.5456 70.6235 57.1662 67.8613 69.8171 59.9234L79.7479 53.6931C79.8699 53.8613 79.9925 54.0302 80.124 54.1904L70.5677 61.0423C58.4302 69.7445 48.8216 85.9318 47.7019 99.5632C47.302 104.433 52.421 107.838 56.7579 105.586C68.8962 99.2838 80.11 84.1637 83.443 69.6059L86.1442 57.8068C86.3395 57.8456 86.539 57.8697 86.7375 57.8979L84.7648 69.8656C82.3358 84.6011 86.9878 102.842 95.835 113.272C98.9956 116.999 105.023 115.787 106.497 111.128C110.623 98.0883 107.861 79.4679 99.9239 66.8166L93.4768 56.5416C93.649 56.4397 93.8241 56.3402 93.989 56.2282L101.042 66.0654C109.744 78.2032 125.931 87.8113 139.563 88.9313C144.433 89.3313 147.838 84.2122 145.586 79.8754C139.283 67.7368 124.163 56.5233 109.605 53.1897L98.1426 50.5663C98.2021 50.3676 98.25 50.1645 98.2971 49.9614L109.865 51.8685Z" fill="url(#paint0_linear_730_10483)"/>
</g>
<defs>
<linearGradient id="paint0_linear_730_10483" x1="130.144" y1="-36.5982" x2="51.5959" y2="95.866" gradientUnits="userSpaceOnUse">
<stop stop-color="#FF8C66"/>
<stop offset="1" stop-color="#FCD4C7"/>
</linearGradient>
</defs>
</svg>
