<svg width="21" height="21" viewBox="0 0 21 21" fill="none" xmlns="http://www.w3.org/2000/svg">
<g clip-path="url(#clip0_322_922)">
<path d="M7.46721 0.925998C5.4689 1.61923 3.74556 2.93501 2.55032 4.68006C1.35508 6.42512 0.750946 8.50747 0.826651 10.6213C0.902355 12.735 1.65391 14.7688 2.97092 16.4239C4.28794 18.079 6.10099 19.2681 8.14377 19.8166C9.7999 20.244 11.535 20.2627 13.2 19.8713C14.7083 19.5325 16.1028 18.8078 17.2469 17.7682C18.4376 16.6531 19.302 15.2346 19.7469 13.6651C20.2305 11.9583 20.3166 10.1634 19.9985 8.41819H10.6985V12.276H16.0844C15.9768 12.8913 15.7461 13.4785 15.4062 14.0026C15.0663 14.5267 14.6242 14.9768 14.1063 15.326C13.4486 15.761 12.7072 16.0538 11.9297 16.1854C11.1499 16.3304 10.3501 16.3304 9.57033 16.1854C8.78 16.022 8.03236 15.6958 7.37502 15.2276C6.319 14.48 5.52608 13.4181 5.1094 12.1932C4.68567 10.9454 4.68567 9.59257 5.1094 8.34475C5.406 7.47009 5.89632 6.67371 6.54377 6.01506C7.2847 5.24748 8.22273 4.69881 9.25495 4.42924C10.2872 4.15968 11.3737 4.17964 12.3953 4.48694C13.1934 4.73192 13.9232 5.15996 14.5266 5.73694C15.1339 5.13277 15.7401 4.52704 16.3453 3.91975C16.6578 3.59319 16.9985 3.28225 17.3063 2.94787C16.3853 2.0908 15.3042 1.4239 14.125 0.985373C11.9777 0.20567 9.62811 0.184716 7.46721 0.925998Z" fill="white"/>
<path d="M7.46721 0.925994C9.62794 0.184208 11.9775 0.204611 14.125 0.983807C15.3044 1.42531 16.385 2.09543 17.3047 2.95568C16.9922 3.29006 16.6625 3.60256 16.3438 3.92756C15.7375 4.53277 15.1318 5.13589 14.5266 5.73693C13.9232 5.15996 13.1934 4.73192 12.3953 4.48693C11.374 4.17856 10.2876 4.15744 9.25505 4.4259C8.22256 4.69437 7.28395 5.24203 6.54221 6.00881C5.89476 6.66746 5.40444 7.46383 5.10784 8.33849L1.86877 5.83068C3.02816 3.53156 5.03557 1.77291 7.46721 0.925994Z" fill="#E33629"/>
<path d="M1.00942 8.31506C1.18352 7.45224 1.47255 6.61667 1.86879 5.83069L5.10786 8.34475C4.68413 9.59257 4.68413 10.9454 5.10786 12.1932C4.02869 13.0265 2.949 13.864 1.86879 14.7057C0.876842 12.7312 0.574314 10.4815 1.00942 8.31506Z" fill="#F8BD00"/>
<path d="M10.6984 8.41663H19.9984C20.3166 10.1618 20.2305 11.9567 19.7469 13.6635C19.3019 15.233 18.4376 16.6515 17.2469 17.7666C16.2016 16.951 15.1516 16.1416 14.1063 15.326C14.6245 14.9764 15.0668 14.5258 15.4067 14.0012C15.7467 13.4766 15.9771 12.8887 16.0844 12.2729H10.6984C10.6969 10.9885 10.6984 9.70256 10.6984 8.41663Z" fill="#587DBD"/>
<path d="M1.86719 14.7057C2.9474 13.8723 4.02708 13.0348 5.10625 12.1932C5.52376 13.4185 6.31782 14.4805 7.375 15.2276C8.03439 15.6936 8.78364 16.0171 9.575 16.1776C10.3548 16.3225 11.1546 16.3225 11.9344 16.1776C12.7119 16.0459 13.4533 15.7532 14.1109 15.3182C15.1562 16.1338 16.2063 16.9432 17.2516 17.7588C16.1076 18.799 14.7132 19.5242 13.2047 19.8635C11.5397 20.2549 9.80457 20.2361 8.14844 19.8088C6.8386 19.4591 5.61512 18.8425 4.55469 17.9979C3.43228 17.1068 2.51556 15.9838 1.86719 14.7057Z" fill="#319F43"/>
</g>
<defs>
<clipPath id="clip0_322_922">
<rect width="20" height="20" fill="white" transform="translate(0.5 0.268188)"/>
</clipPath>
</defs>
</svg>
