<svg width="20" height="18" viewBox="0 0 20 18" fill="none" xmlns="http://www.w3.org/2000/svg">
<path d="M11.3265 17.75L8.89096 14.8333H4.36777C4.13708 14.8333 3.91583 14.7455 3.7527 14.5892C3.58957 14.4329 3.49793 14.221 3.49793 14V4.91913C3.49793 4.69811 3.58957 4.48615 3.7527 4.32987C3.91583 4.17359 4.13708 4.08579 4.36777 4.08579H18.2853C18.516 4.08579 18.7372 4.17359 18.9003 4.32987C19.0635 4.48615 19.1551 4.69811 19.1551 4.91913V14C19.1551 14.221 19.0635 14.4329 18.9003 14.5892C18.7372 14.7455 18.516 14.8333 18.2853 14.8333H13.7621L11.3265 17.75ZM12.9262 13.1666H17.4154V5.75246H5.23762V13.1666H9.72688L11.3265 15.0816L12.9262 13.1666ZM0.888398 0.666626H15.6757V2.33329H1.75824V11.5H0.0185547V1.49996C0.0185547 1.27895 0.110199 1.06698 0.273326 0.910704C0.436453 0.754423 0.657701 0.666626 0.888398 0.666626Z" fill="#CC3300"/>
</svg>
