<svg width="16" height="18" viewBox="0 0 16 18" fill="none" xmlns="http://www.w3.org/2000/svg">
<path d="M13.9633 7.33329H14.8331C15.0638 7.33329 15.285 7.42109 15.4481 7.57737C15.6112 7.73365 15.7029 7.94561 15.7029 8.16663V16.5C15.7029 16.721 15.6112 16.9329 15.4481 17.0892C15.285 17.2455 15.0638 17.3333 14.8331 17.3333H0.916651C0.685972 17.3333 0.464741 17.2455 0.301627 17.0892C0.138512 16.9329 0.046875 16.721 0.046875 16.5V8.16663C0.046875 7.94561 0.138512 7.73365 0.301627 7.57737C0.464741 7.42109 0.685972 7.33329 0.916651 7.33329H1.78643V6.49996C1.78643 5.73392 1.94391 4.97537 2.24988 4.26764C2.55585 3.55991 3.00433 2.91684 3.56969 2.37517C4.13505 1.83349 4.80624 1.40381 5.54492 1.11066C6.2836 0.81751 7.07532 0.666626 7.87486 0.666626C8.67441 0.666626 9.46612 0.81751 10.2048 1.11066C10.9435 1.40381 11.6147 1.83349 12.18 2.37517C12.7454 2.91684 13.1939 3.55991 13.4998 4.26764C13.8058 4.97537 13.9633 5.73392 13.9633 6.49996V7.33329ZM1.78643 8.99996V15.6666H13.9633V8.99996H1.78643ZM7.00509 10.6666H8.74464V14H7.00509V10.6666ZM12.2237 7.33329V6.49996C12.2237 5.39489 11.7656 4.33508 10.95 3.55368C10.1344 2.77228 9.02826 2.33329 7.87486 2.33329C6.72147 2.33329 5.61531 2.77228 4.79974 3.55368C3.98417 4.33508 3.52598 5.39489 3.52598 6.49996V7.33329H12.2237Z" fill="#CC3300"/>
</svg>
