<svg width="18" height="18" viewBox="0 0 18 18" fill="none" xmlns="http://www.w3.org/2000/svg">
<path d="M1.78732 17.3333C1.55663 17.3333 1.33538 17.2455 1.17225 17.0892C1.00912 16.9329 0.91748 16.721 0.91748 16.5V1.49996C0.91748 1.27895 1.00912 1.06698 1.17225 0.910704C1.33538 0.754423 1.55663 0.666626 1.78732 0.666626H13.9651C14.1958 0.666626 14.4171 0.754423 14.5802 0.910704C14.7433 1.06698 14.835 1.27895 14.835 1.49996V3.99996H13.0953V2.33329H2.65717V15.6666H13.0953V14H14.835V16.5C14.835 16.721 14.7433 16.9329 14.5802 17.0892C14.4171 17.2455 14.1958 17.3333 13.9651 17.3333H1.78732ZM13.0953 12.3333V9.83329H7.00638V8.16663H13.0953V5.66663L17.4445 8.99996L13.0953 12.3333Z" fill="#CC3300"/>
</svg>
