<svg width="20" height="20" viewBox="0 0 20 20" fill="none" xmlns="http://www.w3.org/2000/svg">
<path d="M18.8333 17L15.1667 13.3333C16.0834 12 16.6666 10.4167 16.6666 8.66669C16.6666 4.33336 13.0833 0.75 8.74992 0.75C4.41659 0.75 0.833252 4.33336 0.833252 8.66669C0.833252 13 4.41659 16.5834 8.74992 16.5834C10.4999 16.5834 12.0833 16 13.4167 15.0833L17.0833 18.75L18.8333 17ZM3.33325 8.75001C3.33325 5.75001 5.74992 3.33334 8.74992 3.33334C11.7499 3.33334 14.1666 5.75001 14.1666 8.75001C14.1666 11.75 11.7499 14.1667 8.74992 14.1667C5.74992 14.1667 3.33325 11.75 3.33325 8.75001Z" fill="black"/>
</svg>
