<svg width="20" height="20" viewBox="0 0 20 20" fill="none" xmlns="http://www.w3.org/2000/svg">
<g opacity="0.4" clip-path="url(#clip0_336_924)">
<path d="M15.0259 13.8476L18.5951 17.4159L17.4159 18.5951L13.8476 15.0259C12.5199 16.0903 10.8684 16.6692 9.16675 16.6667C5.02675 16.6667 1.66675 13.3067 1.66675 9.16675C1.66675 5.02675 5.02675 1.66675 9.16675 1.66675C13.3067 1.66675 16.6667 5.02675 16.6667 9.16675C16.6692 10.8684 16.0903 12.5199 15.0259 13.8476ZM13.3542 13.2292C14.4118 12.1417 15.0025 10.6838 15.0001 9.16675C15.0001 5.94341 12.3892 3.33341 9.16675 3.33341C5.94341 3.33341 3.33341 5.94341 3.33341 9.16675C3.33341 12.3892 5.94341 15.0001 9.16675 15.0001C10.6838 15.0025 12.1417 14.4118 13.2292 13.3542L13.3542 13.2292ZM10.1484 5.98008C9.90269 6.09108 9.68756 6.26004 9.52149 6.47246C9.35542 6.68488 9.24337 6.93442 9.19495 7.19967C9.14653 7.46492 9.16319 7.73796 9.24349 7.99536C9.3238 8.25276 9.46535 8.48683 9.65601 8.67749C9.84667 8.86814 10.0807 9.0097 10.3381 9.09001C10.5955 9.17031 10.8686 9.18697 11.1338 9.13855C11.3991 9.09013 11.6486 8.97807 11.861 8.812C12.0735 8.64594 12.2424 8.43081 12.3534 8.18508C12.5724 8.89643 12.547 9.66062 12.2813 10.3559C12.0156 11.0511 11.5248 11.6374 10.8872 12.0214C10.2496 12.4054 9.50181 12.5649 8.76302 12.4745C8.02422 12.3842 7.33691 12.0492 6.81061 11.5229C6.28431 10.9966 5.9493 10.3093 5.85895 9.57048C5.7686 8.83168 5.92812 8.0839 6.31209 7.44628C6.69605 6.80867 7.28237 6.3179 7.97762 6.05218C8.67288 5.78647 9.43706 5.76108 10.1484 5.98008Z" fill="#09121F"/>
</g>
<defs>
<clipPath id="clip0_336_924">
<rect width="20" height="20" fill="white"/>
</clipPath>
</defs>
</svg>
