<svg width="16" height="18" viewBox="0 0 16 18" fill="none" xmlns="http://www.w3.org/2000/svg">
<path d="M10.5 2.33341H2.16667V15.6667H13.8333V5.66675H10.5V2.33341ZM0.5 1.49341C0.5 1.03675 0.8725 0.666748 1.3325 0.666748H11.3333L15.5 4.83342V16.4942C15.5008 16.6037 15.48 16.7122 15.4388 16.8136C15.3976 16.915 15.3369 17.0073 15.2601 17.0852C15.1832 17.1631 15.0918 17.2252 14.991 17.2678C14.8902 17.3103 14.7819 17.3327 14.6725 17.3334H1.3275C1.10865 17.3319 0.899181 17.2443 0.744348 17.0897C0.589515 16.935 0.501746 16.7256 0.5 16.5067V1.49341ZM8.83333 9.00008V12.3334H7.16667V9.00008H4.66667L8 5.66675L11.3333 9.00008H8.83333Z" fill="#5E5E5E"/>
</svg>
