<svg width="22" height="20" viewBox="0 0 22 20" fill="none" xmlns="http://www.w3.org/2000/svg">
<g clip-path="url(#clip0_730_10507)">
<path d="M3.91748 18.3334C3.91748 16.5653 4.65063 14.8696 5.95565 13.6193C7.26067 12.3691 9.03065 11.6667 10.8762 11.6667C12.7218 11.6667 14.4918 12.3691 15.7968 13.6193C17.1018 14.8696 17.835 16.5653 17.835 18.3334H16.0953C16.0953 17.0073 15.5454 15.7355 14.5667 14.7978C13.5879 13.8602 12.2604 13.3334 10.8762 13.3334C9.49205 13.3334 8.16456 13.8602 7.18579 14.7978C6.20703 15.7355 5.65717 17.0073 5.65717 18.3334H3.91748ZM10.8762 10.8334C7.9927 10.8334 5.65717 8.59587 5.65717 5.83337C5.65717 3.07087 7.9927 0.833374 10.8762 0.833374C13.7598 0.833374 16.0953 3.07087 16.0953 5.83337C16.0953 8.59587 13.7598 10.8334 10.8762 10.8334ZM10.8762 9.16671C12.7986 9.16671 14.3556 7.67504 14.3556 5.83337C14.3556 3.99171 12.7986 2.50004 10.8762 2.50004C8.95387 2.50004 7.39685 3.99171 7.39685 5.83337C7.39685 7.67504 8.95387 9.16671 10.8762 9.16671Z" fill="#CC3300"/>
</g>
<defs>
<clipPath id="clip0_730_10507">
<rect width="20.8762" height="20" fill="white" transform="translate(0.437988)"/>
</clipPath>
</defs>
</svg>
