<svg width="14" height="13" viewBox="0 0 14 13" fill="none" xmlns="http://www.w3.org/2000/svg">
<path d="M11.6667 11.3333H2.33337V12C2.33337 12.1768 2.26314 12.3464 2.13811 12.4714C2.01309 12.5964 1.84352 12.6667 1.66671 12.6667H1.00004C0.82323 12.6667 0.65366 12.5964 0.528636 12.4714C0.403612 12.3464 0.333374 12.1768 0.333374 12V5.33332L1.98671 1.47466C2.08959 1.23466 2.26068 1.03015 2.47874 0.88651C2.69681 0.742871 2.95225 0.666425 3.21337 0.666657H10.7867C11.0476 0.666686 11.3028 0.743254 11.5206 0.886877C11.7384 1.0305 11.9092 1.23487 12.012 1.47466L13.6667 5.33332V12C13.6667 12.1768 13.5965 12.3464 13.4714 12.4714C13.3464 12.5964 13.1769 12.6667 13 12.6667H12.3334C12.1566 12.6667 11.987 12.5964 11.862 12.4714C11.7369 12.3464 11.6667 12.1768 11.6667 12V11.3333ZM12.3334 6.66666H1.66671V9.99999H12.3334V6.66666ZM1.78404 5.33332H12.216L10.7874 1.99999H3.21337L1.78471 5.33332H1.78404ZM3.33337 9.33332C3.06816 9.33332 2.8138 9.22797 2.62627 9.04043C2.43873 8.85289 2.33337 8.59854 2.33337 8.33332C2.33337 8.06811 2.43873 7.81375 2.62627 7.62622C2.8138 7.43868 3.06816 7.33332 3.33337 7.33332C3.59859 7.33332 3.85294 7.43868 4.04048 7.62622C4.22802 7.81375 4.33337 8.06811 4.33337 8.33332C4.33337 8.59854 4.22802 8.85289 4.04048 9.04043C3.85294 9.22797 3.59859 9.33332 3.33337 9.33332ZM10.6667 9.33332C10.4015 9.33332 10.1471 9.22797 9.9596 9.04043C9.77207 8.85289 9.66671 8.59854 9.66671 8.33332C9.66671 8.06811 9.77207 7.81375 9.9596 7.62622C10.1471 7.43868 10.4015 7.33332 10.6667 7.33332C10.9319 7.33332 11.1863 7.43868 11.3738 7.62622C11.5613 7.81375 11.6667 8.06811 11.6667 8.33332C11.6667 8.59854 11.5613 8.85289 11.3738 9.04043C11.1863 9.22797 10.9319 9.33332 10.6667 9.33332Z" fill="white"/>
</svg>
